<svg xmlns="http://www.w3.org/2000/svg" width="17" height="18" viewBox="0 0 17 18" fill="none">
<path fill-rule="evenodd" clip-rule="evenodd" d="M15.4539 7.90779C15.4539 7.90779 15.7503 8.07273 15.9227 8.36512C15.9227 8.36512 16.0959 8.65891 16.0959 8.99996C16.0959 8.99996 16.0959 9.34101 15.9227 9.63481C15.9227 9.63481 15.7495 9.9286 15.451 10.0937L2.25857 17.4828C2.25857 17.4828 1.91401 17.6731 1.52596 17.6341C1.52596 17.6341 1.13791 17.5951 0.840882 17.3424C0.840882 17.3424 0.543852 17.0897 0.443239 16.7129C0.443239 16.7129 0.342626 16.3361 0.474131 15.9689L2.95858 8.99996L0.473821 2.03015C0.473821 2.03015 0.342626 1.66386 0.443239 1.28706C0.443239 1.28706 0.543852 0.910255 0.840881 0.657519C0.840881 0.657519 1.13791 0.404784 1.52596 0.365794C1.52596 0.365794 1.91401 0.326804 2.25538 0.515395L15.451 7.90621L15.4539 7.90779ZM1.65093 1.60953L14.8431 8.99838L14.8459 8.99996L1.65093 16.3904L4.13187 9.43127C4.13187 9.43127 4.30086 8.99996 4.13187 8.56865L1.65093 1.60953Z" fill="black" fill-opacity="0.2"/>
<path d="M3.62503 9.625H8.62503C8.97021 9.625 9.25003 9.34518 9.25003 9C9.25003 8.65482 8.97021 8.375 8.62503 8.375H3.62503C3.27985 8.375 3.00003 8.65482 3.00003 9C3.00003 9.34518 3.27985 9.625 3.62503 9.625Z" fill="black" fill-opacity="0.2"/>
</svg>